<svg xmlns="http://www.w3.org/2000/svg" viewBox="0 0 780 535" font-family="monospace" font-size="12">
  <defs>
    <marker id="arrow" markerWidth="8" markerHeight="6" refX="8" refY="3" orient="auto">
      <path d="M0,0 L8,3 L0,6" fill="#333"/>
    </marker>
    <marker id="arrow-blue" markerWidth="8" markerHeight="6" refX="8" refY="3" orient="auto">
      <path d="M0,0 L8,3 L0,6" fill="#2266aa"/>
    </marker>
    <marker id="arrow-indigo" markerWidth="8" markerHeight="6" refX="8" refY="3" orient="auto">
      <path d="M0,0 L8,3 L0,6" fill="#283593"/>
    </marker>
    <marker id="arrow-green" markerWidth="8" markerHeight="6" refX="8" refY="3" orient="auto">
      <path d="M0,0 L8,3 L0,6" fill="#2e7d32"/>
    </marker>
    <marker id="arrow-orange" markerWidth="8" markerHeight="6" refX="8" refY="3" orient="auto">
      <path d="M0,0 L8,3 L0,6" fill="#e65100"/>
    </marker>
  </defs>

  <!-- Background -->
  <rect width="780" height="535" fill="#fafafa" rx="8"/>

  <!-- Title -->
  <text x="390" y="30" text-anchor="middle" font-size="16" font-weight="bold" fill="#222">Line Topology — After sbd1/sd1 Move Right</text>

  <!-- a0 (AND gate) -->
  <rect x="340" y="45" width="70" height="40" fill="#e8eaf6" stroke="#283593" rx="6" stroke-width="2"/>
  <text x="375" y="62" text-anchor="middle" font-weight="bold" fill="#283593">a0</text>
  <text x="375" y="77" text-anchor="middle" font-size="10" fill="#283593">AND</text>

  <!-- === STREAK BREAK DETECTORS (upper row, y=100) === -->

  <!-- sbd0 (Streak Break Detector between i0 and i1) — stays -->
  <rect x="120" y="100" width="110" height="40" fill="#ffebee" stroke="#c62828" rx="20" stroke-width="2"/>
  <text x="175" y="115" text-anchor="middle" font-weight="bold" font-size="10" fill="#c62828">sbd0</text>
  <text x="175" y="132" text-anchor="middle" font-size="8" fill="#c62828">Streak Break (1,-1|-1,1)</text>

  <!-- sbd1 (Streak Break Detector between i1 and i2 — moved right) -->
  <rect x="530" y="100" width="110" height="40" fill="#e3f2fd" stroke="#1565c0" rx="20" stroke-width="2"/>
  <text x="585" y="115" text-anchor="middle" font-weight="bold" font-size="10" fill="#1565c0">sbd1</text>
  <text x="585" y="132" text-anchor="middle" font-size="8" fill="#1565c0">Streak Break (1,-1|-1,1)</text>

  <!-- === INHIBITOR ROW (y=170) === -->

  <!-- InputNode -->
  <rect x="20" y="170" width="80" height="60" fill="#e0e0e0" stroke="#666" rx="6" stroke-width="2"/>
  <text x="60" y="195" text-anchor="middle" font-weight="bold" fill="#333">in0</text>
  <text x="60" y="210" text-anchor="middle" font-size="10" fill="#555">Input</text>
  <text x="60" y="222" text-anchor="middle" font-size="9" fill="#555">[-1,1,1,-1]→</text>

  <!-- i0 -->
  <rect x="140" y="170" width="90" height="60" fill="#fff3e0" stroke="#e65100" rx="6" stroke-width="2"/>
  <text x="185" y="190" text-anchor="middle" font-weight="bold" fill="#e65100">i0</text>
  <text x="185" y="205" text-anchor="middle" font-size="10" fill="#bf360c">Chain</text>
  <text x="185" y="220" text-anchor="middle" font-size="10" fill="#bf360c">Inhibitor</text>

  <!-- i1 -->
  <rect x="365" y="170" width="90" height="60" fill="#fff3e0" stroke="#e65100" rx="6" stroke-width="2"/>
  <text x="410" y="190" text-anchor="middle" font-weight="bold" fill="#e65100">i1</text>
  <text x="410" y="205" text-anchor="middle" font-size="10" fill="#bf360c">Chain</text>
  <text x="410" y="220" text-anchor="middle" font-size="10" fill="#bf360c">Inhibitor</text>

  <!-- i2 -->
  <rect x="590" y="170" width="90" height="60" fill="#fff3e0" stroke="#e65100" rx="6" stroke-width="2"/>
  <text x="635" y="190" text-anchor="middle" font-weight="bold" fill="#e65100">i2</text>
  <text x="635" y="205" text-anchor="middle" font-size="10" fill="#bf360c">Chain</text>
  <text x="635" y="220" text-anchor="middle" font-size="10" fill="#bf360c">Inhibitor</text>

  <!-- === STREAK DETECTORS (below inhibitors, y=260) === -->

  <!-- sd0 (Streak Detector between i0 and i1) — stays -->
  <rect x="120" y="260" width="100" height="40" fill="#e8f5e9" stroke="#2e7d32" rx="20" stroke-width="2"/>
  <text x="170" y="275" text-anchor="middle" font-weight="bold" font-size="10" fill="#2e7d32">sd0</text>
  <text x="170" y="292" text-anchor="middle" font-size="8" fill="#2e7d32">Streak (-1,-1|1,1)</text>

  <!-- sd1 (Streak Detector between i1 and i2 — moved right) -->
  <rect x="530" y="260" width="100" height="40" fill="#e8f5e9" stroke="#2e7d32" rx="20" stroke-width="2"/>
  <text x="580" y="275" text-anchor="middle" font-weight="bold" font-size="10" fill="#2e7d32">sd1</text>
  <text x="580" y="292" text-anchor="middle" font-size="8" fill="#2e7d32">Streak (-1,-1|1,1)</text>

  <!-- === CONNECTIONS === -->

  <!-- in0 -> i0 -->
  <line x1="100" y1="200" x2="138" y2="200" stroke="#333" stroke-width="1.5" marker-end="url(#arrow)"/>

  <!-- i0 -> i1 -->
  <line x1="230" y1="200" x2="363" y2="200" stroke="#333" stroke-width="1.5" marker-end="url(#arrow)"/>

  <!-- i1 -> i2 -->
  <line x1="455" y1="200" x2="588" y2="200" stroke="#333" stroke-width="1.5" marker-end="url(#arrow)"/>

  <!-- i0 -> sbd0 (blue, up) -->
  <line x1="160" y1="170" x2="150" y2="140" stroke="#2266aa" stroke-width="1.5" marker-end="url(#arrow-blue)"/>

  <!-- i1 -> sbd0 (blue, up-left) -->
  <line x1="395" y1="170" x2="215" y2="140" stroke="#2266aa" stroke-width="1.5" marker-end="url(#arrow-blue)"/>

  <!-- i0 -> sd0 (blue, down) -->
  <line x1="160" y1="230" x2="150" y2="260" stroke="#2266aa" stroke-width="1.5" marker-end="url(#arrow-blue)"/>

  <!-- i1 -> sd0 (blue, down-left) -->
  <line x1="395" y1="230" x2="205" y2="260" stroke="#2266aa" stroke-width="1.5" marker-end="url(#arrow-blue)"/>

  <!-- i1 -> sbd1 (blue, up-right) -->
  <line x1="420" y1="170" x2="545" y2="140" stroke="#2266aa" stroke-width="1.5" marker-end="url(#arrow-blue)"/>

  <!-- i2 -> sbd1 (blue, up-left) -->
  <line x1="625" y1="170" x2="625" y2="140" stroke="#2266aa" stroke-width="1.5" marker-end="url(#arrow-blue)"/>

  <!-- i1 -> sd1 (blue, down-right) -->
  <line x1="420" y1="230" x2="545" y2="260" stroke="#2266aa" stroke-width="1.5" marker-end="url(#arrow-blue)"/>

  <!-- i2 -> sd1 (blue, down-left) -->
  <line x1="625" y1="230" x2="615" y2="260" stroke="#2266aa" stroke-width="1.5" marker-end="url(#arrow-blue)"/>

  <!-- sbd0 -> a0 (indigo, up) -->
  <line x1="210" y1="100" x2="345" y2="85" stroke="#283593" stroke-width="1.5" marker-end="url(#arrow-indigo)"/>

  <!-- sbd1 -> a0 (indigo, up) -->
  <line x1="555" y1="100" x2="405" y2="85" stroke="#283593" stroke-width="1.5" marker-end="url(#arrow-indigo)"/>

  <!-- sd0 -> sd1 (green signal chain) -->
  <line x1="220" y1="280" x2="528" y2="280" stroke="#2e7d32" stroke-width="1.5" marker-end="url(#arrow-green)"/>

  <!-- sd1 -> i2 (struct pointer, dashed orange) -->
  <line x1="625" y1="260" x2="635" y2="232" stroke="#e65100" stroke-width="1.5" stroke-dasharray="4,3" marker-end="url(#arrow-orange)"/>

  <!-- sd1 -> sbd1 (struct pointer, dashed orange) -->
  <line x1="610" y1="260" x2="600" y2="140" stroke="#e65100" stroke-width="1.5" stroke-dasharray="4,3" marker-end="url(#arrow-orange)"/>

  <!-- Behavior note -->
  <rect x="20" y="325" width="240" height="55" fill="#fff9c4" stroke="#f9a825" rx="4"/>
  <text x="140" y="343" text-anchor="middle" font-size="10" fill="#f57f17">sbd1/sd1 moved right: no longer</text>
  <text x="140" y="357" text-anchor="middle" font-size="9" fill="#f57f17">self-loop on i1. Now connects</text>
  <text x="140" y="371" text-anchor="middle" font-size="9" fill="#f57f17">i1 ↔ sbd1/sd1 ↔ i2</text>

  <!-- === LEGEND === -->
  <rect x="20" y="400" width="460" height="124" fill="#f0f0f0" rx="4" stroke="#ccc"/>

  <!-- Column headers -->
  <text x="85" y="418" text-anchor="start" font-weight="bold" fill="#333" font-size="11">Color</text>
  <text x="210" y="418" text-anchor="start" font-weight="bold" fill="#333" font-size="11">Description</text>
  <line x1="30" y1="423" x2="470" y2="423" stroke="#ccc" stroke-width="1"/>
  <line x1="200" y1="405" x2="200" y2="519" stroke="#ccc" stroke-width="0.5"/>

  <!-- Row 1 -->
  <line x1="40" y1="438" x2="70" y2="438" stroke="#333" stroke-width="1.5" marker-end="url(#arrow)"/>
  <text x="85" y="442" text-anchor="start" fill="#333" font-size="10">Chain</text>
  <text x="210" y="442" text-anchor="start" fill="#666" font-size="10">Data flow from inhibitor to next</text>

  <!-- Row 2 -->
  <line x1="40" y1="454" x2="70" y2="454" stroke="#2266aa" stroke-width="1.5" marker-end="url(#arrow-blue)"/>
  <text x="85" y="458" text-anchor="start" fill="#2266aa" font-size="10">Edge</text>
  <text x="210" y="458" text-anchor="start" fill="#666" font-size="10">Inhibitor values to detectors</text>

  <!-- Row 3 -->
  <line x1="40" y1="470" x2="70" y2="470" stroke="#283593" stroke-width="1.5" marker-end="url(#arrow-indigo)"/>
  <text x="85" y="474" text-anchor="start" fill="#283593" font-size="10">AND</text>
  <text x="210" y="474" text-anchor="start" fill="#666" font-size="10">Streak break outputs to AND gate</text>

  <!-- Row 4 -->
  <line x1="40" y1="486" x2="70" y2="486" stroke="#2e7d32" stroke-width="1.5" marker-end="url(#arrow-green)"/>
  <text x="85" y="490" text-anchor="start" fill="#2e7d32" font-size="10">Signal</text>
  <text x="210" y="490" text-anchor="start" fill="#666" font-size="10">Streak detector (-1,-1|1,1) signal chain sd0 → sd1</text>

  <!-- Row 5 -->
  <line x1="40" y1="502" x2="70" y2="502" stroke="#e65100" stroke-width="1.5" stroke-dasharray="4,3" marker-end="url(#arrow-orange)"/>
  <text x="85" y="506" text-anchor="start" fill="#e65100" font-size="10">Pointer</text>
  <text x="210" y="506" text-anchor="start" fill="#666" font-size="10">Struct pointer to inhibitor node</text>
</svg>
