<svg xmlns="http://www.w3.org/2000/svg" viewBox="0 0 780 445" font-family="monospace" font-size="12">
  <defs>
    <marker id="arrow" markerWidth="8" markerHeight="6" refX="8" refY="3" orient="auto">
      <path d="M0,0 L8,3 L0,6" fill="#333"/>
    </marker>
    <marker id="arrow-blue" markerWidth="8" markerHeight="6" refX="8" refY="3" orient="auto">
      <path d="M0,0 L8,3 L0,6" fill="#2266aa"/>
    </marker>
    <marker id="arrow-indigo" markerWidth="8" markerHeight="6" refX="8" refY="3" orient="auto">
      <path d="M0,0 L8,3 L0,6" fill="#283593"/>
    </marker>
    <marker id="arrow-green" markerWidth="8" markerHeight="6" refX="8" refY="3" orient="auto">
      <path d="M0,0 L8,3 L0,6" fill="#2e7d32"/>
    </marker>
  </defs>

  <!-- Background -->
  <rect width="780" height="445" fill="#fafafa" rx="8"/>

  <!-- Title -->
  <text x="390" y="30" text-anchor="middle" font-size="16" font-weight="bold" fill="#222">Line Topology — After xor1 Moves Right</text>

  <!-- a0 (AND gate) -->
  <rect x="340" y="50" width="70" height="40" fill="#e8eaf6" stroke="#283593" rx="6" stroke-width="2"/>
  <text x="375" y="67" text-anchor="middle" font-weight="bold" fill="#283593">a0</text>
  <text x="375" y="82" text-anchor="middle" font-size="10" fill="#283593">AND</text>

  <!-- xor0 (XOR between i0 and i1) -->
  <rect x="210" y="110" width="80" height="40" fill="#ffebee" stroke="#c62828" rx="20" stroke-width="2"/>
  <text x="250" y="128" text-anchor="middle" font-weight="bold" font-size="10" fill="#c62828">xor0</text>
  <text x="250" y="142" text-anchor="middle" font-size="9" fill="#c62828">XOR</text>

  <!-- xor1 (XOR between i1 and i2 — moved right) -->
  <rect x="480" y="110" width="80" height="40" fill="#e3f2fd" stroke="#1565c0" rx="20" stroke-width="2"/>
  <text x="520" y="128" text-anchor="middle" font-weight="bold" font-size="10" fill="#1565c0">xor1</text>
  <text x="520" y="142" text-anchor="middle" font-size="9" fill="#1565c0">XOR</text>

  <!-- InputNode -->
  <rect x="20" y="180" width="80" height="60" fill="#e0e0e0" stroke="#666" rx="6" stroke-width="2"/>
  <text x="60" y="205" text-anchor="middle" font-weight="bold" fill="#333">in0</text>
  <text x="60" y="220" text-anchor="middle" font-size="10" fill="#555">Input</text>
  <text x="60" y="232" text-anchor="middle" font-size="9" fill="#555">[0,1,1,0]→</text>

  <!-- i0 -->
  <rect x="140" y="180" width="90" height="60" fill="#fff3e0" stroke="#e65100" rx="6" stroke-width="2"/>
  <text x="185" y="200" text-anchor="middle" font-weight="bold" fill="#e65100">i0</text>
  <text x="185" y="215" text-anchor="middle" font-size="10" fill="#bf360c">Chain</text>
  <text x="185" y="230" text-anchor="middle" font-size="10" fill="#bf360c">Inhibitor</text>

  <!-- i1 -->
  <rect x="365" y="180" width="90" height="60" fill="#fff3e0" stroke="#e65100" rx="6" stroke-width="2"/>
  <text x="410" y="200" text-anchor="middle" font-weight="bold" fill="#e65100">i1</text>
  <text x="410" y="215" text-anchor="middle" font-size="10" fill="#bf360c">Chain</text>
  <text x="410" y="230" text-anchor="middle" font-size="10" fill="#bf360c">Inhibitor</text>

  <!-- i2 -->
  <rect x="590" y="180" width="90" height="60" fill="#fff3e0" stroke="#e65100" rx="6" stroke-width="2"/>
  <text x="635" y="200" text-anchor="middle" font-weight="bold" fill="#e65100">i2</text>
  <text x="635" y="215" text-anchor="middle" font-size="10" fill="#bf360c">Chain</text>
  <text x="635" y="230" text-anchor="middle" font-size="10" fill="#bf360c">Inhibitor</text>

  <!-- === CONNECTIONS === -->

  <!-- in0 -> i0 -->
  <line x1="100" y1="210" x2="138" y2="210" stroke="#333" stroke-width="1.5" marker-end="url(#arrow)"/>

  <!-- i0 -> i1 -->
  <line x1="230" y1="210" x2="363" y2="210" stroke="#333" stroke-width="1.5" marker-end="url(#arrow)"/>

  <!-- i1 -> i2 -->
  <line x1="455" y1="210" x2="588" y2="210" stroke="#333" stroke-width="1.5" marker-end="url(#arrow)"/>

  <!-- i0 -> xor0 -->
  <line x1="185" y1="180" x2="225" y2="150" stroke="#2266aa" stroke-width="1.5" marker-end="url(#arrow-blue)"/>

  <!-- i1 -> xor0 -->
  <line x1="395" y1="180" x2="280" y2="150" stroke="#2266aa" stroke-width="1.5" marker-end="url(#arrow-blue)"/>

  <!-- i1 -> xor1 -->
  <line x1="420" y1="180" x2="490" y2="150" stroke="#2266aa" stroke-width="1.5" marker-end="url(#arrow-blue)"/>

  <!-- i2 -> xor1 -->
  <line x1="625" y1="180" x2="550" y2="150" stroke="#2266aa" stroke-width="1.5" marker-end="url(#arrow-blue)"/>

  <!-- xor0 -> a0 -->
  <line x1="275" y1="110" x2="345" y2="90" stroke="#283593" stroke-width="1.5" marker-end="url(#arrow-indigo)"/>

  <!-- xor1 -> a0 -->
  <line x1="495" y1="110" x2="405" y2="90" stroke="#283593" stroke-width="1.5" marker-end="url(#arrow-indigo)"/>

  <!-- xor0 -> xor1 (edge-to-edge signal) -->
  <line x1="290" y1="125" x2="478" y2="125" stroke="#2e7d32" stroke-width="1.5" marker-end="url(#arrow-green)"/>

  <!-- Behavior note -->
  <rect x="20" y="280" width="240" height="55" fill="#fff9c4" stroke="#f9a825" rx="4"/>
  <text x="140" y="298" text-anchor="middle" font-size="10" fill="#f57f17">xor1 moved right: no longer</text>
  <text x="140" y="312" text-anchor="middle" font-size="9" fill="#f57f17">self-loop on i1. Now connects</text>
  <text x="140" y="326" text-anchor="middle" font-size="9" fill="#f57f17">i1 → xor1 ← i2</text>

  <!-- === LEGEND === -->
  <rect x="20" y="355" width="460" height="90" fill="#f0f0f0" rx="4" stroke="#ccc"/>

  <!-- Column headers -->
  <text x="85" y="373" text-anchor="start" font-weight="bold" fill="#333" font-size="11">Color</text>
  <text x="210" y="373" text-anchor="start" font-weight="bold" fill="#333" font-size="11">Description</text>
  <line x1="30" y1="378" x2="470" y2="378" stroke="#ccc" stroke-width="1"/>
  <line x1="200" y1="360" x2="200" y2="440" stroke="#ccc" stroke-width="0.5"/>

  <!-- Row 1 -->
  <line x1="40" y1="393" x2="70" y2="393" stroke="#333" stroke-width="1.5" marker-end="url(#arrow)"/>
  <text x="85" y="397" text-anchor="start" fill="#333" font-size="10">Chain</text>
  <text x="210" y="397" text-anchor="start" fill="#666" font-size="10">Data flow from inhibitor to next</text>

  <!-- Row 2 -->
  <line x1="40" y1="409" x2="70" y2="409" stroke="#2266aa" stroke-width="1.5" marker-end="url(#arrow-blue)"/>
  <text x="85" y="413" text-anchor="start" fill="#2266aa" font-size="10">Edge</text>
  <text x="210" y="413" text-anchor="start" fill="#666" font-size="10">Inhibitor value to XOR gate</text>

  <!-- Row 3 -->
  <line x1="40" y1="425" x2="70" y2="425" stroke="#283593" stroke-width="1.5" marker-end="url(#arrow-indigo)"/>
  <text x="85" y="429" text-anchor="start" fill="#283593" font-size="10">AND</text>
  <text x="210" y="429" text-anchor="start" fill="#666" font-size="10">XOR outputs to AND gate</text>

  <!-- Row 4 -->
  <line x1="40" y1="441" x2="70" y2="441" stroke="#2e7d32" stroke-width="1.5" marker-end="url(#arrow-green)"/>
  <text x="85" y="445" text-anchor="start" fill="#2e7d32" font-size="10">Signal</text>
  <text x="210" y="445" text-anchor="start" fill="#666" font-size="10">xor0 → xor1 edge violation (0=no edge)</text>
</svg>
