<svg xmlns="http://www.w3.org/2000/svg" viewBox="0 0 700 480" font-family="monospace" font-size="12">
  <defs>
    <marker id="arrow" markerWidth="8" markerHeight="6" refX="8" refY="3" orient="auto">
      <path d="M0,0 L8,3 L0,6" fill="#333"/>
    </marker>
    <marker id="arrow-blue" markerWidth="8" markerHeight="6" refX="8" refY="3" orient="auto">
      <path d="M0,0 L8,3 L0,6" fill="#2266aa"/>
    </marker>
    <marker id="arrow-green" markerWidth="8" markerHeight="6" refX="8" refY="3" orient="auto">
      <path d="M0,0 L8,3 L0,6" fill="#228844"/>
    </marker>
    <marker id="arrow-red" markerWidth="8" markerHeight="6" refX="8" refY="3" orient="auto">
      <path d="M0,0 L8,3 L0,6" fill="#cc2222"/>
    </marker>
    <marker id="arrow-purple" markerWidth="8" markerHeight="6" refX="8" refY="3" orient="auto">
      <path d="M0,0 L8,3 L0,6" fill="#8833aa"/>
    </marker>
  </defs>

  <!-- Background -->
  <rect width="700" height="480" fill="#fafafa" rx="8"/>

  <!-- Title -->
  <text x="350" y="30" text-anchor="middle" font-size="16" font-weight="bold" fill="#222">Line Topology — Shift Register</text>

  <!-- Legend -->
  <rect x="20" y="425" width="660" height="45" fill="#f0f0f0" rx="4" stroke="#ccc"/>
  <line x1="40" y1="445" x2="70" y2="445" stroke="#333" stroke-width="1.5" marker-end="url(#arrow)"/>
  <text x="80" y="449" fill="#333" font-size="10">Shift (push held)</text>
  <line x1="190" y1="445" x2="220" y2="445" stroke="#2266aa" stroke-width="1.5" marker-end="url(#arrow-blue)"/>
  <text x="230" y="449" fill="#2266aa" font-size="10">Edge (XOR)</text>
  <line x1="320" y1="445" x2="350" y2="445" stroke="#cc2222" stroke-width="1.5" marker-end="url(#arrow-red)"/>
  <text x="360" y="449" fill="#cc2222" font-size="10">Edge→Part (0/1)</text>
  <line x1="475" y1="445" x2="505" y2="445" stroke="#228844" stroke-width="1.5" marker-end="url(#arrow-green)"/>
  <text x="515" y="449" fill="#228844" font-size="10">Grow</text>
  <line x1="570" y1="445" x2="600" y2="445" stroke="#8833aa" stroke-width="1.5" stroke-dasharray="6,3" marker-end="url(#arrow-purple)"/>
  <text x="610" y="449" fill="#8833aa" font-size="10">Transfer</text>

  <!-- InputNode -->
  <rect x="20" y="80" width="80" height="60" fill="#e0e0e0" stroke="#666" rx="6" stroke-width="2"/>
  <text x="60" y="105" text-anchor="middle" font-weight="bold" fill="#333">in0</text>
  <text x="60" y="120" text-anchor="middle" font-size="10" fill="#555">Input</text>
  <text x="60" y="132" text-anchor="middle" font-size="9" fill="#555">[0,1,1]→</text>

  <!-- i0 -->
  <rect x="140" y="80" width="90" height="60" fill="#fff3e0" stroke="#e65100" rx="6" stroke-width="2"/>
  <text x="185" y="100" text-anchor="middle" font-weight="bold" fill="#e65100">i0</text>
  <text x="185" y="115" text-anchor="middle" font-size="10" fill="#bf360c">holds: 0</text>
  <text x="185" y="130" text-anchor="middle" font-size="9" fill="#999">after settle</text>

  <!-- edn0 -->
  <rect x="210" y="195" width="80" height="50" fill="#ffebee" stroke="#c62828" rx="20" stroke-width="2"/>
  <text x="250" y="217" text-anchor="middle" font-weight="bold" fill="#c62828">edn0</text>
  <text x="250" y="233" text-anchor="middle" font-size="10" fill="#c62828">XOR</text>

  <!-- i1 -->
  <rect x="310" y="80" width="90" height="60" fill="#fff3e0" stroke="#e65100" rx="6" stroke-width="2"/>
  <text x="355" y="100" text-anchor="middle" font-weight="bold" fill="#e65100">i1</text>
  <text x="355" y="115" text-anchor="middle" font-size="10" fill="#bf360c">holds: 1</text>
  <text x="355" y="130" text-anchor="middle" font-size="9" fill="#999">after settle</text>

  <!-- edn1 -->
  <rect x="400" y="195" width="80" height="50" fill="#e3f2fd" stroke="#1565c0" rx="20" stroke-width="2"/>
  <text x="440" y="217" text-anchor="middle" font-weight="bold" fill="#1565c0">edn1</text>
  <text x="440" y="233" text-anchor="middle" font-size="10" fill="#0d47a1">XOR</text>

  <!-- i2 -->
  <rect x="530" y="80" width="90" height="60" fill="#fff3e0" stroke="#e65100" rx="6" stroke-width="2"/>
  <text x="575" y="100" text-anchor="middle" font-weight="bold" fill="#e65100">i2</text>
  <text x="575" y="115" text-anchor="middle" font-size="10" fill="#bf360c">holds: 1</text>
  <text x="575" y="130" text-anchor="middle" font-size="9" fill="#999">after settle</text>

  <!-- Partition Node -->
  <rect x="270" y="320" width="200" height="70" fill="#e8f5e9" stroke="#2e7d32" rx="6" stroke-width="2"/>
  <text x="370" y="345" text-anchor="middle" font-weight="bold" fill="#2e7d32">p0 — Partition</text>
  <text x="370" y="362" text-anchor="middle" font-size="10" fill="#1b5e20">1st contrast (1) → Growing</text>
  <text x="370" y="378" text-anchor="middle" font-size="10" fill="#1b5e20">2nd contrast (1) → Stopped</text>

  <!-- === SHIFT CASCADE === -->
  <line x1="100" y1="110" x2="138" y2="110" stroke="#333" stroke-width="1.5" marker-end="url(#arrow)"/>
  <line x1="230" y1="105" x2="308" y2="105" stroke="#333" stroke-width="1.5" marker-end="url(#arrow)"/>
  <line x1="400" y1="105" x2="528" y2="105" stroke="#333" stroke-width="1.5" marker-end="url(#arrow)"/>

  <!-- === EDGE CONNECTIONS === -->

  <!-- i0 -> edn0 -->
  <line x1="175" y1="140" x2="230" y2="193" stroke="#2266aa" stroke-width="1.5" marker-end="url(#arrow-blue)"/>
  <!-- edn0 -> i0 -->
  <line x1="225" y1="195" x2="170" y2="142" stroke="#2266aa" stroke-width="1.5" marker-end="url(#arrow-blue)"/>
  <!-- i1 -> edn0 -->
  <line x1="330" y1="140" x2="270" y2="193" stroke="#2266aa" stroke-width="1.5" marker-end="url(#arrow-blue)"/>

  <!-- i1 -> edn1 -->
  <line x1="380" y1="140" x2="420" y2="193" stroke="#2266aa" stroke-width="1.5" marker-end="url(#arrow-blue)"/>
  <!-- edn1 -> i1 -->
  <line x1="415" y1="195" x2="375" y2="142" stroke="#2266aa" stroke-width="1.5" marker-end="url(#arrow-blue)"/>
  <!-- i2 -> edn1 -->
  <line x1="550" y1="140" x2="460" y2="193" stroke="#2266aa" stroke-width="1.5" marker-end="url(#arrow-blue)"/>

  <!-- === edn0 -> partition === -->
  <path d="M 250 245 C 250 290, 290 300, 290 318" fill="none" stroke="#cc2222" stroke-width="2" marker-end="url(#arrow-red)"/>
  <text x="250" y="285" text-anchor="middle" font-size="10" fill="#cc2222">0/1</text>

  <!-- === PARTITION -> i1 (Grow) === -->
  <line x1="400" y1="320" x2="365" y2="142" stroke="#228844" stroke-width="1.5" marker-end="url(#arrow-green)"/>
  <text x="400" y="260" text-anchor="middle" font-size="9" fill="#228844">Grow</text>

  <!-- Transfer: i1 -> i2 -->
  <path d="M 400 90 C 430 55, 510 55, 530 90" fill="none" stroke="#8833aa" stroke-width="1.5" stroke-dasharray="6,3" marker-end="url(#arrow-purple)"/>
  <text x="465" y="50" text-anchor="middle" font-size="9" fill="#8833aa">EndPartition</text>
  <text x="465" y="62" text-anchor="middle" font-size="9" fill="#8833aa">Transfer</text>

  <!-- Behavior note -->
  <rect x="20" y="170" width="170" height="55" fill="#fff9c4" stroke="#f9a825" rx="4"/>
  <text x="105" y="188" text-anchor="middle" font-size="10" fill="#f57f17">Shift register:</text>
  <text x="105" y="202" text-anchor="middle" font-size="9" fill="#f57f17">On receive: push held</text>
  <text x="105" y="214" text-anchor="middle" font-size="9" fill="#f57f17">→ next, store new value</text>
</svg>
