<svg xmlns="http://www.w3.org/2000/svg" viewBox="0 0 750 480" font-family="monospace" font-size="12">
  <defs>
    <marker id="arrow" markerWidth="8" markerHeight="6" refX="8" refY="3" orient="auto">
      <path d="M0,0 L8,3 L0,6" fill="#333"/>
    </marker>
    <marker id="arrow-blue" markerWidth="8" markerHeight="6" refX="8" refY="3" orient="auto">
      <path d="M0,0 L8,3 L0,6" fill="#2266aa"/>
    </marker>
    <marker id="arrow-green" markerWidth="8" markerHeight="6" refX="8" refY="3" orient="auto">
      <path d="M0,0 L8,3 L0,6" fill="#228844"/>
    </marker>
    <marker id="arrow-red" markerWidth="8" markerHeight="6" refX="8" refY="3" orient="auto">
      <path d="M0,0 L8,3 L0,6" fill="#cc2222"/>
    </marker>
    <marker id="arrow-purple" markerWidth="8" markerHeight="6" refX="8" refY="3" orient="auto">
      <path d="M0,0 L8,3 L0,6" fill="#8833aa"/>
    </marker>
  </defs>

  <!-- Background -->
  <rect width="750" height="480" fill="#fafafa" rx="8"/>

  <!-- Title -->
  <text x="375" y="30" text-anchor="middle" font-size="16" font-weight="bold" fill="#222">Line Topology</text>

  <!-- Legend -->
  <rect x="20" y="425" width="710" height="45" fill="#f0f0f0" rx="4" stroke="#ccc"/>
  <line x1="40" y1="445" x2="70" y2="445" stroke="#333" stroke-width="1.5" marker-end="url(#arrow)"/>
  <text x="80" y="449" fill="#333" font-size="10">Data cascade</text>
  <line x1="175" y1="445" x2="205" y2="445" stroke="#2266aa" stroke-width="1.5" marker-end="url(#arrow-blue)"/>
  <text x="215" y="449" fill="#2266aa" font-size="10">Edge (XOR)</text>
  <line x1="300" y1="445" x2="330" y2="445" stroke="#cc2222" stroke-width="1.5" marker-end="url(#arrow-red)"/>
  <text x="340" y="449" fill="#cc2222" font-size="10">Edge→Partition (0/1)</text>
  <line x1="490" y1="445" x2="520" y2="445" stroke="#228844" stroke-width="1.5" marker-end="url(#arrow-green)"/>
  <text x="530" y="449" fill="#228844" font-size="10">Partition (Grow)</text>
  <line x1="630" y1="445" x2="660" y2="445" stroke="#8833aa" stroke-width="1.5" stroke-dasharray="6,3" marker-end="url(#arrow-purple)"/>
  <text x="670" y="449" fill="#8833aa" font-size="10">Transfer</text>

  <!-- Input -->
  <rect x="20" y="90" width="80" height="40" fill="#eee" stroke="#999" rx="4"/>
  <text x="60" y="112" text-anchor="middle" font-size="11" fill="#555">[0, 1, 1]</text>

  <!-- i0 - Starting Inhibitor -->
  <rect x="140" y="80" width="90" height="60" fill="#fff3e0" stroke="#e65100" rx="6" stroke-width="2"/>
  <text x="185" y="105" text-anchor="middle" font-weight="bold" fill="#e65100">i0</text>
  <text x="185" y="125" text-anchor="middle" font-size="10" fill="#bf360c">Starting</text>

  <!-- edn0 -->
  <rect x="190" y="190" width="80" height="50" fill="#ffebee" stroke="#c62828" rx="20" stroke-width="2"/>
  <text x="230" y="212" text-anchor="middle" font-weight="bold" fill="#c62828">edn0</text>
  <text x="230" y="228" text-anchor="middle" font-size="10" fill="#c62828">XOR</text>

  <!-- i1 -->
  <rect x="290" y="80" width="90" height="60" fill="#fff3e0" stroke="#e65100" rx="6" stroke-width="2"/>
  <text x="335" y="105" text-anchor="middle" font-weight="bold" fill="#e65100">i1</text>
  <text x="335" y="125" text-anchor="middle" font-size="10" fill="#bf360c">Inhibitor</text>

  <!-- edn1 -->
  <rect x="370" y="190" width="80" height="50" fill="#e3f2fd" stroke="#1565c0" rx="20" stroke-width="2"/>
  <text x="410" y="212" text-anchor="middle" font-weight="bold" fill="#1565c0">edn1</text>
  <text x="410" y="228" text-anchor="middle" font-size="10" fill="#0d47a1">XOR</text>

  <!-- i2 -->
  <rect x="500" y="80" width="90" height="60" fill="#fff3e0" stroke="#e65100" rx="6" stroke-width="2"/>
  <text x="545" y="105" text-anchor="middle" font-weight="bold" fill="#e65100">i2</text>
  <text x="545" y="125" text-anchor="middle" font-size="10" fill="#bf360c">Inhibitor</text>

  <!-- Partition Node -->
  <rect x="240" y="320" width="240" height="70" fill="#e8f5e9" stroke="#2e7d32" rx="6" stroke-width="2"/>
  <text x="360" y="345" text-anchor="middle" font-weight="bold" fill="#2e7d32">p0 — Partition</text>
  <text x="360" y="362" text-anchor="middle" font-size="10" fill="#1b5e20">0 from edge → start growing</text>
  <text x="360" y="378" text-anchor="middle" font-size="10" fill="#1b5e20">1 from edge (while growing) → stop</text>

  <!-- === DATA CASCADE === -->
  <line x1="100" y1="110" x2="138" y2="110" stroke="#333" stroke-width="1.5" marker-end="url(#arrow)"/>
  <line x1="230" y1="105" x2="288" y2="105" stroke="#333" stroke-width="1.5" marker-end="url(#arrow)"/>
  <line x1="380" y1="105" x2="498" y2="105" stroke="#333" stroke-width="1.5" marker-end="url(#arrow)"/>

  <!-- === EDGE CONNECTIONS === -->

  <!-- i0 -> edn0 -->
  <line x1="175" y1="140" x2="210" y2="188" stroke="#2266aa" stroke-width="1.5" marker-end="url(#arrow-blue)"/>
  <!-- edn0 -> i0 -->
  <line x1="205" y1="190" x2="170" y2="142" stroke="#2266aa" stroke-width="1.5" marker-end="url(#arrow-blue)"/>
  <!-- i1 -> edn0 -->
  <line x1="310" y1="140" x2="250" y2="188" stroke="#2266aa" stroke-width="1.5" marker-end="url(#arrow-blue)"/>

  <!-- i1 -> edn1 -->
  <line x1="360" y1="140" x2="395" y2="188" stroke="#2266aa" stroke-width="1.5" marker-end="url(#arrow-blue)"/>
  <!-- edn1 -> i1 -->
  <line x1="390" y1="190" x2="355" y2="142" stroke="#2266aa" stroke-width="1.5" marker-end="url(#arrow-blue)"/>
  <!-- i2 -> edn1 -->
  <line x1="520" y1="140" x2="435" y2="188" stroke="#2266aa" stroke-width="1.5" marker-end="url(#arrow-blue)"/>

  <!-- === edn0 -> partition (0 or 1) === -->
  <path d="M 230 240 C 230 290, 260 300, 270 318" fill="none" stroke="#cc2222" stroke-width="2" marker-end="url(#arrow-red)"/>
  <text x="225" y="285" text-anchor="middle" font-size="10" fill="#cc2222">0/1</text>

  <!-- === PARTITION -> i1 (Grow via EndToInhibitor) === -->
  <line x1="350" y1="320" x2="340" y2="142" stroke="#228844" stroke-width="1.5" marker-end="url(#arrow-green)"/>
  <text x="365" y="260" text-anchor="middle" font-size="9" fill="#228844">Grow</text>

  <!-- Transfer: i1 -> i2 -->
  <path d="M 380 90 C 410 55, 470 55, 500 90" fill="none" stroke="#8833aa" stroke-width="1.5" stroke-dasharray="6,3" marker-end="url(#arrow-purple)"/>
  <text x="440" y="50" text-anchor="middle" font-size="9" fill="#8833aa">EndPartition</text>
  <text x="440" y="62" text-anchor="middle" font-size="9" fill="#8833aa">Transfer</text>
</svg>
